# xmcd
#
# Track frame offsets:
#	150
#	9022
#	23125
#	37484
#	48700
#	57535
#	70971
#	85952
#	97801
#	118792
#	127207
#	140345
#	153193
#	167474
#	179339
#	193865
#	203828
#	215224
#	224983
#	237323
#	248273
#	260249
#	281274
#	300342
#
# Disc length: 4152 seconds
#
# Revision: 0
# Processed by: cddbd v1.5.2PL0 Copyright (c) Steve Scherf et al.
# Submitted via: EasyCDDAExtractor 16.0.9.1
#
DISCID=69103618
DTITLE=Виктор Берковский - Российские барды 9
DYEAR=2010
DGENRE=Ballad
TTITLE0=Виктор Берковский - Божественная суббота
TTITLE1=Виктор Берковский - Alma-Mater
TTITLE2=Виктор Берковский - Гренада
TTITLE3=Виктор Берковский - Про гусара
TTITLE4=Виктор Берковский - Песня шагом, шагом
TTITLE5=Виктор Берковский - Вспомните, ребята
TTITLE6=Виктор Берковский - Сороковые-роковые
TTITLE7=Виктор Берковский - Выезд
TTITLE8=Виктор Берковский - Ну что с того, что я там был
TTITLE9=Виктор Берковский - Гамлет
TTITLE10=Виктор Берковский - В городском саду
TTITLE11=Виктор Берковский - Катюша
TTITLE12=Виктор Берковский - Две женщины
TTITLE13=Виктор Берковский - Контрабандисты
TTITLE14=Виктор Берковский - Подарите мне море
TTITLE15=Виктор Берковский - Получилось хорошо
TTITLE16=Виктор Берковский - Песенка про собаку Тябу
TTITLE17=Виктор Берковский - Осенины
TTITLE18=Виктор Берковский - Персидский базар
TTITLE19=Виктор Берковский и Дмитрий Богданов - Конец сезона
TTITLE20=Виктор Берковский - Марк Шагал
TTITLE21=Виктор Берковский - Ночная дорога
TTITLE22=Виктор Берковский - Кинематограф
TTITLE23=Виктор Берковский - Тихоокеанская звезда
EXTD=
EXTT0=
EXTT1=
EXTT2=
EXTT3=
EXTT4=
EXTT5=
EXTT6=
EXTT7=
EXTT8=
EXTT9=
EXTT10=
EXTT11=
EXTT12=
EXTT13=
EXTT14=
EXTT15=
EXTT16=
EXTT17=
EXTT18=
EXTT19=
EXTT20=
EXTT21=
EXTT22=
EXTT23=
PLAYORDER=
